<?xml version="1.0" standalone="no"?>
<!DOCTYPE svg PUBLIC "-//W3C//DTD SVG 20010904//EN"
 "http://www.w3.org/TR/2001/REC-SVG-20010904/DTD/svg10.dtd">
<svg version="1.0" xmlns="http://www.w3.org/2000/svg"
 width="260.000000pt" height="260.000000pt" viewBox="0 0 260.000000 260.000000"
 preserveAspectRatio="xMidYMid meet">
<metadata>
Created by potrace 1.11, written by Peter Selinger 2001-2013
</metadata>
<g transform="translate(0.000000,260.000000) scale(0.100000,-0.100000)"
fill="#000000" stroke="none">
<path d="M0 2315 c1 -207 5 -285 13 -289 9 -3 8 -7 -2 -14 -18 -13 -6 -82 14
-82 8 0 15 -5 15 -11 0 -5 -4 -7 -10 -4 -5 3 -10 -1 -10 -9 0 -9 -4 -16 -10
-16 -6 0 -10 -37 -10 -91 0 -57 4 -88 10 -84 5 3 10 2 10 -4 0 -5 -5 -11 -10
-13 -7 -2 -7 -14 -1 -35 5 -18 6 -35 1 -38 -14 -8 -11 -388 3 -397 9 -6 9 -8
-1 -8 -18 0 -17 -1086 1 -1094 9 -3 9 -5 0 -5 -9 -1 -13 -20 -13 -60 l0 -60
549 -1 c435 0 550 2 554 12 4 10 6 10 6 1 1 -10 155 -13 736 -13 647 0 735 2
735 15 0 8 5 15 10 15 6 0 10 10 10 23 0 18 -2 19 -10 7 -8 -12 -10 -11 -10 8
0 12 3 22 8 22 4 0 8 68 9 150 2 110 -1 149 -9 144 -8 -5 -8 -3 -2 7 14 22 10
53 -8 67 -17 13 -25 42 -12 42 4 0 13 -8 20 -17 12 -16 13 -16 14 -1 0 9 -6
18 -12 21 -10 3 -9 8 2 22 11 14 12 19 3 22 -7 3 -13 9 -13 14 0 6 5 7 10 4
14 -9 12 8 -2 24 -10 11 -10 12 -1 7 10 -5 12 42 12 213 -1 152 -5 219 -12
214 -6 -4 -8 0 -4 10 3 10 2 17 -4 17 -6 0 -3 7 5 16 9 8 16 22 16 30 0 13
-15 50 -25 62 -6 7 -44 -32 -39 -40 3 -4 0 -8 -5 -8 -19 0 -12 18 17 46 l27
26 -25 -7 c-21 -5 -22 -4 -7 5 13 8 22 9 31 1 21 -18 25 -2 10 36 -8 19 -10
32 -4 28 15 -9 25 25 13 44 -7 11 -7 22 1 34 9 14 6 22 -17 43 -15 14 -24 30
-20 36 4 8 10 4 16 -10 20 -44 28 -20 26 73 -2 87 -4 95 -21 89 -13 -4 -16 -1
-12 10 3 9 12 16 20 16 8 0 14 5 14 11 0 5 -5 7 -10 4 -5 -3 -10 -1 -10 4 0 6
5 11 10 11 14 0 10 430 -4 449 -8 11 -8 13 1 8 9 -6 12 56 13 263 l0 270 -309
0 c-238 0 -310 -3 -314 -12 -4 -10 -6 -10 -6 0 -1 10 -202 12 -986 12 l-986
-1 1 -284z m166 257 c37 -31 47 -58 33 -97 -8 -21 -19 -33 -30 -32 -13 1 -15
6 -9 23 9 23 -7 45 -40 57 -10 4 -8 6 7 6 12 1 23 -5 26 -11 2 -7 8 -10 12 -5
5 4 4 12 -2 18 -6 6 -9 18 -6 25 3 8 -1 14 -11 14 -10 0 -13 -6 -10 -15 4 -8
1 -15 -5 -15 -6 0 -11 11 -11 25 0 29 16 32 46 7z m484 -2 c0 -5 -5 -10 -11
-10 -5 0 -7 5 -4 10 3 6 8 10 11 10 2 0 4 -4 4 -10z m1410 -10 c0 -5 -2 -10
-4 -10 -3 0 -8 5 -11 10 -3 6 -1 10 4 10 6 0 11 -4 11 -10z m-760 -40 c0 -5
-4 -10 -10 -10 -5 0 -10 5 -10 10 0 6 5 10 10 10 6 0 10 -4 10 -10z m790 -4
c0 -3 -4 -8 -10 -11 -5 -3 -10 -1 -10 4 0 6 5 11 10 11 6 0 10 -2 10 -4z
m-1950 -66 c0 -5 -2 -10 -4 -10 -3 0 -8 5 -11 10 -3 6 -1 10 4 10 6 0 11 -4
11 -10z m330 6 c0 -3 -4 -8 -10 -11 -5 -3 -10 -1 -10 4 0 6 5 11 10 11 6 0 10
-2 10 -4z m1251 -38 c71 -31 76 -46 81 -245 5 -193 1 -224 -34 -256 -20 -19
-30 -21 -68 -15 -155 26 -212 20 -278 -29 -50 -37 -62 -63 -78 -165 -18 -119
-28 -430 -13 -439 8 -4 7 -13 -2 -27 -17 -27 2 -258 28 -339 21 -65 80 -137
132 -159 20 -8 84 -19 143 -24 180 -15 180 -15 179 -271 -1 -212 -4 -223 -64
-259 -37 -23 -100 -25 -282 -9 -127 11 -207 26 -269 53 -21 9 -42 14 -46 11
-5 -3 -10 -2 -12 3 -1 4 -26 24 -54 45 -28 20 -73 63 -99 94 -26 32 -51 58
-55 58 -5 0 -12 3 -16 8 -4 4 -2 7 3 7 6 0 -2 24 -18 52 -36 66 -63 154 -86
283 -15 85 -18 159 -17 495 0 431 10 547 60 692 76 224 237 385 444 443 75 20
368 16 421 -7z m-871 -34 c0 -8 -5 -12 -10 -9 -6 4 -8 11 -5 16 9 14 15 11 15
-7z m-47 -8 c9 5 9 4 0 -6 -13 -15 -37 -4 -26 13 5 8 8 8 11 -1 2 -7 9 -9 15
-6z m-603 -20 c0 -8 -4 -18 -10 -21 -5 -3 -10 3 -10 14 0 12 5 21 10 21 6 0
10 -6 10 -14z m40 -41 c-7 -9 -15 -13 -17 -11 -7 7 7 26 19 26 6 0 6 -6 -2
-15z m-183 -137 c-3 -8 -6 -5 -6 6 -1 11 2 17 5 13 3 -3 4 -12 1 -19z m74 -75
c-12 -20 -14 -14 -5 12 4 9 9 14 11 11 3 -2 0 -13 -6 -23z m726 5 c-3 -8 -6
-5 -6 6 -1 11 2 17 5 13 3 -3 4 -12 1 -19z m-727 -164 c0 -8 -7 -14 -15 -14
-8 0 -15 -5 -15 -11 0 -6 7 -9 15 -5 9 3 15 0 15 -10 0 -11 -5 -14 -17 -10 -9
4 -19 2 -23 -4 -4 -6 -7 3 -7 20 0 16 4 30 9 30 5 0 7 4 4 9 -7 10 14 21 27
14 4 -2 7 -11 7 -19z m160 1 c0 -8 -4 -15 -10 -15 -5 0 -10 7 -10 15 0 8 5 15
10 15 6 0 10 -7 10 -15z m370 -9 c0 -3 -4 -8 -10 -11 -5 -3 -10 -1 -10 4 0 6
5 11 10 11 6 0 10 -2 10 -4z m-500 -60 c0 -3 -4 -8 -10 -11 -5 -3 -10 -1 -10
4 0 6 5 11 10 11 6 0 10 -2 10 -4z m1540 -26 c0 -5 -5 -10 -11 -10 -5 0 -7 5
-4 10 3 6 8 10 11 10 2 0 4 -4 4 -10z m790 -12 c0 -4 -4 -8 -9 -8 -6 0 -12 4
-15 8 -3 5 1 9 9 9 8 0 15 -4 15 -9z m-1980 -23 c0 -8 -4 -15 -10 -15 -5 0
-10 7 -10 15 0 8 5 15 10 15 6 0 10 -7 10 -15z m-220 -15 c0 -5 -5 -10 -11
-10 -5 0 -7 5 -4 10 3 6 8 10 11 10 2 0 4 -4 4 -10z m30 -40 c0 -5 -7 -10 -16
-10 -8 0 -12 5 -9 10 3 6 10 10 16 10 5 0 9 -4 9 -10z m100 -30 c0 -5 -4 -10
-10 -10 -5 0 -10 5 -10 10 0 6 5 10 10 10 6 0 10 -4 10 -10z m2100 -10 c0 -5
-2 -10 -4 -10 -3 0 -8 5 -11 10 -3 6 -1 10 4 10 6 0 11 -4 11 -10z m-1145 -43
c13 -27 8 -60 -8 -54 -12 4 -21 77 -9 77 4 0 12 -10 17 -23z m1195 -37 c0 -5
-4 -10 -10 -10 -5 0 -10 5 -10 10 0 6 5 10 10 10 6 0 10 -4 10 -10z m-2480
-10 c0 -5 -5 -10 -11 -10 -5 0 -7 5 -4 10 3 6 8 10 11 10 2 0 4 -4 4 -10z
m2450 -31 c0 -11 -4 -17 -10 -14 -5 3 -10 13 -10 21 0 8 5 14 10 14 6 0 10 -9
10 -21z m-2030 -16 c0 -22 -2 -25 -10 -13 -13 20 -13 40 0 40 6 0 10 -12 10
-27z m-55 7 c-3 -5 -11 -10 -16 -10 -6 0 -7 5 -4 10 3 6 11 10 16 10 6 0 7 -4
4 -10z m2050 0 c3 -6 -1 -7 -9 -4 -18 7 -21 14 -7 14 6 0 13 -4 16 -10z m-48
-45 c0 -8 -4 -12 -9 -9 -4 3 -8 9 -8 15 0 5 4 9 8 9 5 0 9 -7 9 -15z m-2387
-39 c0 -2 -7 -7 -16 -10 -8 -3 -12 -2 -9 4 6 10 25 14 25 6z m2415 -6 c-3 -5
-10 -10 -16 -10 -5 0 -9 5 -9 10 0 6 7 10 16 10 8 0 12 -4 9 -10z m-2385 -30
c0 -5 -4 -10 -10 -10 -5 0 -10 5 -10 10 0 6 5 10 10 10 6 0 10 -4 10 -10z
m-40 -16 c0 -8 -4 -12 -10 -9 -5 3 -10 10 -10 16 0 5 5 9 10 9 6 0 10 -7 10
-16z m110 -4 c0 -5 -5 -10 -11 -10 -5 0 -7 5 -4 10 3 6 8 10 11 10 2 0 4 -4 4
-10z m2400 -5 c0 -8 -4 -15 -10 -15 -5 0 -10 7 -10 15 0 8 5 15 10 15 6 0 10
-7 10 -15z m-1000 -16 c0 -11 -4 -17 -10 -14 -5 3 -10 13 -10 21 0 8 5 14 10
14 6 0 10 -9 10 -21z m50 11 c0 -13 -11 -13 -30 0 -12 8 -11 10 8 10 12 0 22
-4 22 -10z m-140 -10 c0 -5 -5 -10 -11 -10 -5 0 -7 5 -4 10 3 6 8 10 11 10 2
0 4 -4 4 -10z m1020 1 c0 -17 -21 -24 -33 -12 -9 9 -7 10 7 5 13 -5 17 -4 12
4 -4 7 -2 12 3 12 6 0 11 -4 11 -9z m-2420 -41 c0 -5 -2 -10 -4 -10 -3 0 -8 5
-11 10 -3 6 -1 10 4 10 6 0 11 -4 11 -10z m1484 4 c23 -9 20 -23 -4 -21 -11 1
-20 7 -20 14 0 15 2 15 24 7z m-1443 -33 c-12 -12 -21 -16 -21 -10 0 12 32 40
38 34 2 -2 -6 -13 -17 -24z m2459 -22 c0 -5 -4 -9 -10 -9 -5 0 -10 7 -10 16 0
8 5 12 10 9 6 -3 10 -10 10 -16z m-2310 -19 c0 -5 -5 -10 -11 -10 -5 0 -7 5
-4 10 3 6 8 10 11 10 2 0 4 -4 4 -10z m-77 -47 c23 -44 30 -73 18 -73 -6 0
-11 8 -11 18 0 10 -4 22 -9 28 -11 11 -24 54 -17 54 3 0 12 -12 19 -27z m1237
1 c0 -8 -4 -14 -10 -14 -5 0 -10 9 -10 21 0 11 5 17 10 14 6 -3 10 -13 10 -21z
m1055 6 c-3 -5 -12 -10 -18 -10 -7 0 -6 4 3 10 19 12 23 12 15 0z m-2125 -20
c0 -5 -2 -10 -4 -10 -3 0 -8 5 -11 10 -3 6 -1 10 4 10 6 0 11 -4 11 -10z
m1200 -25 c0 -14 -4 -25 -10 -25 -5 0 -10 11 -10 25 0 14 5 25 10 25 6 0 10
-11 10 -25z m1000 15 c0 -5 -4 -10 -10 -10 -5 0 -10 5 -10 10 0 6 5 10 10 10
6 0 10 -4 10 -10z m-2343 -82 c-3 -8 -6 -5 -6 6 -1 11 2 17 5 13 3 -3 4 -12 1
-19z m1128 2 c3 -5 1 -10 -4 -10 -6 0 -11 5 -11 10 0 6 2 10 4 10 3 0 8 -4 11
-10z m45 -20 c0 -5 -4 -10 -10 -10 -5 0 -10 5 -10 10 0 6 5 10 10 10 6 0 10
-4 10 -10z m-663 -20 c-1 -11 -5 -20 -9 -20 -10 0 -10 4 -2 24 8 22 13 20 11
-4z m1750 -32 c-3 -8 -6 -5 -6 6 -1 11 2 17 5 13 3 -3 4 -12 1 -19z m104 8
c-9 -11 -9 -15 1 -19 7 -2 1 -4 -13 -4 -25 0 -26 1 -11 18 9 11 20 19 25 19 5
0 4 -6 -2 -14z m-1201 -32 c0 -8 -5 -12 -10 -9 -6 4 -8 11 -5 16 9 14 15 11
15 -7z m1150 6 c0 -5 -2 -10 -4 -10 -3 0 -8 5 -11 10 -3 6 -1 10 4 10 6 0 11
-4 11 -10z m-1094 -67 c-5 -11 -10 -13 -17 -6 -7 7 -7 17 3 32 10 18 14 19 16
6 2 -9 1 -23 -2 -32z m1124 27 c0 -5 -2 -10 -4 -10 -3 0 -8 5 -11 10 -3 6 -1
10 4 10 6 0 11 -4 11 -10z m-1990 -34 c0 -3 -4 -8 -10 -11 -5 -3 -10 -1 -10 4
0 6 5 11 10 11 6 0 10 -2 10 -4z m2020 0 c0 -3 -4 -8 -10 -11 -5 -3 -10 -1
-10 4 0 6 5 11 10 11 6 0 10 -2 10 -4z m-2520 -26 c0 -5 -4 -10 -10 -10 -5 0
-10 5 -10 10 0 6 5 10 10 10 6 0 10 -4 10 -10z m73 -31 c-8 -29 -13 -23 -13
14 0 22 3 28 9 18 5 -7 6 -22 4 -32z m1243 -4 c-3 -9 -11 -13 -16 -10 -8 5 -7
11 1 21 14 18 24 11 15 -11z m214 -25 c0 -5 -4 -10 -10 -10 -5 0 -10 5 -10 10
0 6 5 10 10 10 6 0 10 -4 10 -10z m956 -16 c-4 -12 -2 -15 9 -10 8 3 15 1 15
-3 0 -12 -21 -19 -37 -14 -9 4 -10 10 -2 24 12 23 24 25 15 3z m-906 -39 c0
-8 -4 -15 -10 -15 -5 0 -10 7 -10 15 0 8 5 15 10 15 6 0 10 -7 10 -15z m-1510
-5 c0 -5 -4 -10 -10 -10 -5 0 -10 5 -10 10 0 6 5 10 10 10 6 0 10 -4 10 -10z
m1341 -27 c-12 -20 -14 -14 -5 12 4 9 9 14 11 11 3 -2 0 -13 -6 -23z m-1416
-52 c-3 -6 -11 -11 -16 -11 -5 0 -4 6 3 14 14 16 24 13 13 -3z m2495 -1 c0 -5
-8 -10 -17 -10 -15 0 -16 2 -3 10 19 12 20 12 20 0z m-2280 -80 c0 -11 -4 -20
-9 -20 -6 0 -9 9 -8 20 1 11 5 20 9 20 4 0 8 -9 8 -20z m-40 -20 c0 -5 -2 -10
-4 -10 -3 0 -8 5 -11 10 -3 6 -1 10 4 10 6 0 11 -4 11 -10z m290 -20 c0 -5 -5
-10 -11 -10 -5 0 -7 5 -4 10 3 6 8 10 11 10 2 0 4 -4 4 -10z m2053 -25 c4 -8
2 -17 -2 -20 -5 -2 -11 4 -14 15 -6 23 8 27 16 5z m-2393 -65 c0 -5 -5 -10
-11 -10 -5 0 -7 5 -4 10 3 6 8 10 11 10 2 0 4 -4 4 -10z m80 -14 c0 -3 -4 -8
-10 -11 -5 -3 -10 -1 -10 4 0 6 5 11 10 11 6 0 10 -2 10 -4z m540 -10 c0 -3
-4 -8 -10 -11 -5 -3 -10 -1 -10 4 0 6 5 11 10 11 6 0 10 -2 10 -4z m1240 -68
c0 -39 -10 -31 -15 11 -2 19 0 29 5 26 6 -4 10 -20 10 -37z m-1890 22 c0 -5
-2 -10 -4 -10 -3 0 -8 5 -11 10 -3 6 -1 10 4 10 6 0 11 -4 11 -10z m20 -40 c0
-5 -4 -10 -10 -10 -5 0 -10 5 -10 10 0 6 5 10 10 10 6 0 10 -4 10 -10z m2393
-26 c-7 -19 -10 -18 -16 5 -3 13 -1 18 9 14 7 -2 10 -11 7 -19z m-33 6 c0 -5
-4 -10 -10 -10 -5 0 -10 5 -10 10 0 6 5 10 10 10 6 0 10 -4 10 -10z m17 -49
c0 -11 -5 -18 -9 -15 -4 3 -5 11 -1 19 7 21 12 19 10 -4z m8 -132 c11 -16 1
-19 -13 -3 -7 8 -8 14 -3 14 5 0 13 -5 16 -11z m-465 -3 c0 -3 -4 -8 -10 -11
-5 -3 -10 -1 -10 4 0 6 5 11 10 11 6 0 10 -2 10 -4z m420 -16 c0 -5 -5 -10
-11 -10 -5 0 -7 5 -4 10 3 6 8 10 11 10 2 0 4 -4 4 -10z m60 -19 c0 -5 -9 -11
-20 -14 -11 -3 -20 -1 -20 3 0 5 8 11 18 13 9 3 18 5 20 6 1 0 2 -3 2 -8z
m-1820 -11 c0 -5 -5 -10 -11 -10 -5 0 -7 5 -4 10 3 6 8 10 11 10 2 0 4 -4 4
-10z m-75 -10 c-3 -5 -10 -10 -16 -10 -5 0 -9 5 -9 10 0 6 7 10 16 10 8 0 12
-4 9 -10z m1345 0 c0 -5 -5 -10 -11 -10 -5 0 -7 5 -4 10 3 6 8 10 11 10 2 0 4
-4 4 -10z m-1173 -66 c-9 -9 -27 6 -27 22 0 13 2 13 16 -1 9 -9 14 -18 11 -21z
m1283 16 c0 -5 -4 -10 -10 -10 -5 0 -10 5 -10 10 0 6 5 10 10 10 6 0 10 -4 10
-10z m-1980 -20 c0 -5 -4 -10 -10 -10 -5 0 -10 5 -10 10 0 6 5 10 10 10 6 0
10 -4 10 -10z m570 -10 c0 -5 -5 -10 -11 -10 -5 0 -7 5 -4 10 3 6 8 10 11 10
2 0 4 -4 4 -10z m755 -10 c3 -5 1 -10 -4 -10 -6 0 -11 5 -11 10 0 6 2 10 4 10
3 0 8 -4 11 -10z m700 -10 c3 -5 1 -10 -4 -10 -6 0 -11 5 -11 10 0 6 2 10 4
10 3 0 8 -4 11 -10z m-1530 -29 c3 -5 1 -12 -5 -16 -5 -3 -10 1 -10 9 0 18 6
21 15 7z m822 -33 c-3 -7 -5 -2 -5 12 0 14 2 19 5 13 2 -7 2 -19 0 -25z m1084
-1 c-1 -12 -15 -9 -19 4 -3 6 1 10 8 8 6 -3 11 -8 11 -12z m-2381 -1 c0 -11
-19 -15 -25 -6 -3 5 1 10 9 10 9 0 16 -2 16 -4z"/>
</g>
</svg>
